<svg width="81" height="81" viewBox="0 0 81 81" fill="none" xmlns="http://www.w3.org/2000/svg">
<ellipse cx="40.131" cy="40.131" rx="22.1695" ry="34.5844" transform="rotate(45 40.131 40.131)" fill="#007690" fill-opacity="0.3"/>
<mask id="path-2-inside-1_0_592" fill="white">
<path d="M76 42.5C76 42.5 63.0163 57 47 57C30.9837 57 18 42.5 18 42.5C18 42.5 30.9837 28 47 28C63.0163 28 76 42.5 76 42.5Z"/>
</mask>
<path d="M76 42.5L76.745 43.1671L77.3423 42.5L76.745 41.8329L76 42.5ZM18 42.5L17.255 41.8329L16.6577 42.5L17.255 43.1671L18 42.5ZM76 42.5C75.255 41.8329 75.2552 41.8328 75.2553 41.8326C75.2552 41.8327 75.2553 41.8326 75.2552 41.8327C75.2551 41.8328 75.2548 41.8332 75.2542 41.8338C75.2532 41.8349 75.2514 41.8369 75.2488 41.8398C75.2436 41.8456 75.2353 41.8548 75.2239 41.8672C75.201 41.8922 75.1659 41.9304 75.1188 41.9809C75.0246 42.082 74.8824 42.2325 74.6946 42.4252C74.319 42.8107 73.7614 43.3651 73.0415 44.032C71.6005 45.3668 69.5142 47.1475 66.9378 48.9272C61.7658 52.4997 54.7171 56 47 56V58C55.2992 58 62.7505 54.2503 68.0744 50.5728C70.7459 48.7275 72.9066 46.8832 74.4006 45.4992C75.1481 44.8068 75.7301 44.2283 76.1271 43.8209C76.3256 43.6171 76.478 43.4561 76.5817 43.3447C76.6336 43.2891 76.6734 43.2458 76.7007 43.2159C76.7143 43.201 76.7249 43.1894 76.7323 43.1812C76.736 43.1771 76.7389 43.1739 76.741 43.1715C76.7421 43.1703 76.7429 43.1694 76.7436 43.1686C76.7439 43.1683 76.7443 43.1679 76.7444 43.1677C76.7447 43.1674 76.745 43.1671 76 42.5ZM47 56C39.2829 56 32.2342 52.4997 27.0622 48.9272C24.4858 47.1475 22.3995 45.3668 20.9585 44.032C20.2386 43.3651 19.681 42.8107 19.3054 42.4252C19.1176 42.2325 18.9754 42.082 18.8812 41.9809C18.8341 41.9304 18.7989 41.8922 18.7761 41.8672C18.7647 41.8548 18.7564 41.8456 18.7512 41.8398C18.7486 41.8369 18.7468 41.8349 18.7457 41.8338C18.7452 41.8332 18.7449 41.8328 18.7448 41.8327C18.7447 41.8326 18.7448 41.8327 18.7447 41.8326C18.7448 41.8328 18.745 41.8329 18 42.5C17.255 43.1671 17.2553 43.1674 17.2556 43.1677C17.2557 43.1679 17.2561 43.1683 17.2564 43.1686C17.2571 43.1694 17.2579 43.1703 17.259 43.1715C17.2611 43.1739 17.264 43.1771 17.2677 43.1812C17.2751 43.1894 17.2857 43.201 17.2993 43.2159C17.3266 43.2458 17.3664 43.2891 17.4183 43.3447C17.522 43.4561 17.6744 43.6171 17.8729 43.8209C18.2699 44.2283 18.8519 44.8068 19.5994 45.4992C21.0934 46.8832 23.2541 48.7275 25.9256 50.5728C31.2495 54.2503 38.7008 58 47 58V56ZM18 42.5C18.745 43.1671 18.7448 43.1672 18.7447 43.1674C18.7448 43.1673 18.7447 43.1674 18.7448 43.1673C18.7449 43.1672 18.7452 43.1668 18.7457 43.1662C18.7468 43.1651 18.7486 43.1631 18.7512 43.1602C18.7564 43.1544 18.7647 43.1452 18.7761 43.1328C18.7989 43.1078 18.8341 43.0696 18.8812 43.0191C18.9754 42.918 19.1176 42.7675 19.3054 42.5748C19.681 42.1893 20.2386 41.6349 20.9585 40.968C22.3995 39.6332 24.4858 37.8525 27.0622 36.0728C32.2342 32.5003 39.2829 29 47 29V27C38.7008 27 31.2495 30.7497 25.9256 34.4272C23.2541 36.2725 21.0934 38.1168 19.5994 39.5008C18.8519 40.1932 18.2699 40.7717 17.8729 41.1791C17.6744 41.3829 17.522 41.5439 17.4183 41.6553C17.3664 41.7109 17.3266 41.7542 17.2993 41.7841C17.2857 41.799 17.2751 41.8106 17.2677 41.8188C17.264 41.8229 17.2611 41.8261 17.259 41.8285C17.2579 41.8297 17.2571 41.8306 17.2564 41.8314C17.2561 41.8317 17.2557 41.8321 17.2556 41.8323C17.2553 41.8326 17.255 41.8329 18 42.5ZM47 29C54.7171 29 61.7658 32.5003 66.9378 36.0728C69.5142 37.8525 71.6005 39.6332 73.0415 40.968C73.7614 41.6349 74.319 42.1893 74.6946 42.5748C74.8824 42.7675 75.0246 42.918 75.1188 43.0191C75.1659 43.0696 75.201 43.1078 75.2239 43.1328C75.2353 43.1452 75.2436 43.1544 75.2488 43.1602C75.2514 43.1631 75.2532 43.1651 75.2542 43.1662C75.2548 43.1668 75.2551 43.1672 75.2552 43.1673C75.2553 43.1674 75.2552 43.1673 75.2553 43.1674C75.2552 43.1672 75.255 43.1671 76 42.5C76.745 41.8329 76.7447 41.8326 76.7444 41.8323C76.7443 41.8321 76.7439 41.8317 76.7436 41.8314C76.7429 41.8306 76.7421 41.8297 76.741 41.8285C76.7389 41.8261 76.736 41.8229 76.7323 41.8188C76.7249 41.8106 76.7143 41.799 76.7007 41.7841C76.6734 41.7542 76.6336 41.7109 76.5817 41.6553C76.478 41.5439 76.3256 41.3829 76.1271 41.1791C75.7301 40.7717 75.1481 40.1932 74.4006 39.5008C72.9066 38.1168 70.7459 36.2725 68.0744 34.4272C62.7505 30.7497 55.2992 27 47 27V29Z" fill="white" mask="url(#path-2-inside-1_0_592)"/>
<circle cx="47.5" cy="42.5" r="9" stroke="white"/>
<path d="M41 43.5C41 39.3579 44.3579 36 48.5 36" stroke="white"/>
</svg>
