<svg width="120" height="120" viewBox="0 0 120 120" fill="none" xmlns="http://www.w3.org/2000/svg">
<ellipse cx="60" cy="60" rx="33.1456" ry="51.7072" transform="rotate(45 60 60)" fill="#DEB3B3"/>
<path d="M53.2811 98.5446C71.8095 84.9249 87.1842 73.1624 85.3564 51.8589C83.5645 31.4657 63.8534 31.4657 58.2984 34.379C49.6614 38.9311 44.3215 46.36 53.2452 53.8253C62.169 46.36 56.8291 38.8582 48.192 34.379C42.5295 31.4657 22.8901 31.4657 21.134 51.8589C19.4496 70.941 34 84.5972 44.8232 92.6088" stroke="#907272" stroke-width="1.5" stroke-linecap="round" stroke-linejoin="round"/>
<path d="M89.6658 46.5251L82.3831 46.0049L80.8225 69.4137L84.4639 66.8127L88.6254 58.4896L89.6658 46.5251Z" fill="#DEB3B3"/>
<path d="M67.0278 68.8923C89.5435 80.7702 99.2006 40.5059 98.2033 43.8799C94.3572 46.0377 90.4057 46.0207 83.5528 45.549C69.9833 44.6148 64.2649 55.3141 67.3947 63.5623C68.3396 60.9498 71.5999 55.819 77.0821 56.1964" stroke="#907272" stroke-width="1.5" stroke-linecap="round"/>
</svg>
