<svg width="120" height="120" viewBox="0 0 120 120" fill="none" xmlns="http://www.w3.org/2000/svg">
<ellipse cx="60" cy="60" rx="33.1456" ry="51.7072" transform="rotate(45 60 60)" fill="#9CABE2"/>
<path d="M100.403 64.596C100.403 74.5797 95.6668 83.4571 88.3159 89.1046C83.1084 93.1055 76.5905 95.4836 69.5151 95.4836C52.4564 95.4836 38.6275 81.6547 38.6275 64.596C38.6275 47.5372 52.4564 33.7083 69.5151 33.7083C86.5739 33.7083 100.403 47.5372 100.403 64.596Z" stroke="#515576" stroke-width="1.41667"/>
<path d="M90.1212 87.9496L103.172 101" stroke="#515576" stroke-width="1.41667" stroke-linecap="round"/>
<circle cx="53.0303" cy="82.4546" r="6.16035" stroke="#515576" stroke-width="1.41667"/>
<mask id="path-5-inside-1_0_168" fill="white">
<path d="M55.7778 82.4546C55.7778 81.9681 55.6486 81.4902 55.4034 81.07C55.1582 80.6497 54.8058 80.3021 54.3822 80.0627C53.9586 79.8233 53.479 79.7007 52.9925 79.7074C52.506 79.7141 52.03 79.8499 51.6132 80.1009L52.1258 80.9523C52.3919 80.7921 52.6957 80.7054 53.0062 80.7011C53.3167 80.6969 53.6228 80.7751 53.8932 80.9279C54.1636 81.0807 54.3885 81.3026 54.545 81.5708C54.7016 81.8391 54.784 82.1441 54.784 82.4546H55.7778Z"/>
</mask>
<path d="M55.7778 82.4546C55.7778 81.9681 55.6486 81.4902 55.4034 81.07C55.1582 80.6497 54.8058 80.3021 54.3822 80.0627C53.9586 79.8233 53.479 79.7007 52.9925 79.7074C52.506 79.7141 52.03 79.8499 51.6132 80.1009L52.1258 80.9523C52.3919 80.7921 52.6957 80.7054 53.0062 80.7011C53.3167 80.6969 53.6228 80.7751 53.8932 80.9279C54.1636 81.0807 54.3885 81.3026 54.545 81.5708C54.7016 81.8391 54.784 82.1441 54.784 82.4546H55.7778Z" stroke="#515576" stroke-width="2.83333" mask="url(#path-5-inside-1_0_168)"/>
<circle cx="54.2323" cy="64.4242" r="6.16035" stroke="#515576" stroke-width="1.41667"/>
<mask id="path-7-inside-2_0_168" fill="white">
<path d="M56.9798 64.4242C56.9798 63.9377 56.8506 63.4598 56.6054 63.0396C56.3602 62.6193 56.0078 62.2717 55.5842 62.0323C55.1606 61.7929 54.681 61.6703 54.1945 61.677C53.708 61.6837 53.232 61.8195 52.8151 62.0705L53.3278 62.9219C53.5938 62.7617 53.8976 62.675 54.2082 62.6707C54.5187 62.6665 54.8248 62.7447 55.0952 62.8975C55.3656 63.0503 55.5905 63.2722 55.747 63.5404C55.9035 63.8087 55.986 64.1137 55.986 64.4242H56.9798Z"/>
</mask>
<path d="M56.9798 64.4242C56.9798 63.9377 56.8506 63.4598 56.6054 63.0396C56.3602 62.6193 56.0078 62.2717 55.5842 62.0323C55.1606 61.7929 54.681 61.6703 54.1945 61.677C53.708 61.6837 53.232 61.8195 52.8151 62.0705L53.3278 62.9219C53.5938 62.7617 53.8976 62.675 54.2082 62.6707C54.5187 62.6665 54.8248 62.7447 55.0952 62.8975C55.3656 63.0503 55.5905 63.2722 55.747 63.5404C55.9035 63.8087 55.986 64.1137 55.986 64.4242H56.9798Z" stroke="#515576" stroke-width="2.83333" mask="url(#path-7-inside-2_0_168)"/>
<circle cx="57.0656" cy="48.3687" r="6.16035" stroke="#515576" stroke-width="1.41667"/>
<mask id="path-9-inside-3_0_168" fill="white">
<path d="M59.8131 48.3687C59.8131 47.8821 59.6839 47.4043 59.4387 46.984C59.1935 46.5638 58.841 46.2162 58.4174 45.9768C57.9939 45.7374 57.5143 45.6148 57.0278 45.6215C56.5413 45.6282 56.0652 45.764 55.6484 46.0149L56.161 46.8663C56.4271 46.7061 56.7309 46.6195 57.0415 46.6152C57.352 46.6109 57.6581 46.6892 57.9285 46.842C58.1988 46.9948 58.4238 47.2167 58.5803 47.4849C58.7368 47.7531 58.8193 48.0581 58.8193 48.3687H59.8131Z"/>
</mask>
<path d="M59.8131 48.3687C59.8131 47.8821 59.6839 47.4043 59.4387 46.984C59.1935 46.5638 58.841 46.2162 58.4174 45.9768C57.9939 45.7374 57.5143 45.6148 57.0278 45.6215C56.5413 45.6282 56.0652 45.764 55.6484 46.0149L56.161 46.8663C56.4271 46.7061 56.7309 46.6195 57.0415 46.6152C57.352 46.6109 57.6581 46.6892 57.9285 46.842C58.1988 46.9948 58.4238 47.2167 58.5803 47.4849C58.7368 47.7531 58.8193 48.0581 58.8193 48.3687H59.8131Z" stroke="#515576" stroke-width="2.83333" mask="url(#path-9-inside-3_0_168)"/>
<circle cx="73.1212" cy="40.8131" r="6.16035" stroke="#515576" stroke-width="1.41667"/>
<mask id="path-11-inside-4_0_168" fill="white">
<path d="M75.8687 40.8131C75.8687 40.3266 75.7395 39.8488 75.4942 39.4285C75.249 39.0082 74.8966 38.6606 74.473 38.4212C74.0494 38.1818 73.5699 38.0592 73.0833 38.0659C72.5968 38.0726 72.1208 38.2084 71.704 38.4594L72.2166 39.3108C72.4827 39.1506 72.7865 39.0639 73.097 39.0597C73.4076 39.0554 73.7137 39.1336 73.984 39.2864C74.2544 39.4393 74.4793 39.6611 74.6359 39.9294C74.7924 40.1976 74.8749 40.5026 74.8749 40.8131H75.8687Z"/>
</mask>
<path d="M75.8687 40.8131C75.8687 40.3266 75.7395 39.8488 75.4942 39.4285C75.249 39.0082 74.8966 38.6606 74.473 38.4212C74.0494 38.1818 73.5699 38.0592 73.0833 38.0659C72.5968 38.0726 72.1208 38.2084 71.704 38.4594L72.2166 39.3108C72.4827 39.1506 72.7865 39.0639 73.097 39.0597C73.4076 39.0554 73.7137 39.1336 73.984 39.2864C74.2544 39.4393 74.4793 39.6611 74.6359 39.9294C74.7924 40.1976 74.8749 40.5026 74.8749 40.8131H75.8687Z" stroke="#515576" stroke-width="2.83333" mask="url(#path-11-inside-4_0_168)"/>
<circle cx="87.2879" cy="57.8131" r="6.16035" stroke="#515576" stroke-width="1.41667"/>
<mask id="path-13-inside-5_0_168" fill="white">
<path d="M90.0354 57.8131C90.0354 57.3266 89.9061 56.8488 89.6609 56.4285C89.4157 56.0082 89.0633 55.6606 88.6397 55.4212C88.2161 55.1818 87.7365 55.0592 87.25 55.0659C86.7635 55.0726 86.2875 55.2084 85.8707 55.4594L86.3833 56.3108C86.6494 56.1506 86.9532 56.0639 87.2637 56.0597C87.5743 56.0554 87.8804 56.1336 88.1507 56.2864C88.4211 56.4393 88.646 56.6611 88.8025 56.9294C88.9591 57.1976 89.0415 57.5026 89.0415 57.8131H90.0354Z"/>
</mask>
<path d="M90.0354 57.8131C90.0354 57.3266 89.9061 56.8488 89.6609 56.4285C89.4157 56.0082 89.0633 55.6606 88.6397 55.4212C88.2161 55.1818 87.7365 55.0592 87.25 55.0659C86.7635 55.0726 86.2875 55.2084 85.8707 55.4594L86.3833 56.3108C86.6494 56.1506 86.9532 56.0639 87.2637 56.0597C87.5743 56.0554 87.8804 56.1336 88.1507 56.2864C88.4211 56.4393 88.646 56.6611 88.8025 56.9294C88.9591 57.1976 89.0415 57.5026 89.0415 57.8131H90.0354Z" stroke="#515576" stroke-width="2.83333" mask="url(#path-13-inside-5_0_168)"/>
<circle cx="71.2323" cy="57.8131" r="6.16035" stroke="#515576" stroke-width="1.41667"/>
<mask id="path-15-inside-6_0_168" fill="white">
<path d="M73.9798 57.8131C73.9798 57.3266 73.8506 56.8488 73.6054 56.4285C73.3602 56.0082 73.0078 55.6606 72.5842 55.4212C72.1606 55.1818 71.681 55.0592 71.1945 55.0659C70.708 55.0726 70.232 55.2084 69.8151 55.4594L70.3278 56.3108C70.5938 56.1506 70.8976 56.0639 71.2082 56.0597C71.5187 56.0554 71.8248 56.1336 72.0952 56.2864C72.3656 56.4393 72.5905 56.6611 72.747 56.9294C72.9035 57.1976 72.986 57.5026 72.986 57.8131H73.9798Z"/>
</mask>
<path d="M73.9798 57.8131C73.9798 57.3266 73.8506 56.8488 73.6054 56.4285C73.3602 56.0082 73.0078 55.6606 72.5842 55.4212C72.1606 55.1818 71.681 55.0592 71.1945 55.0659C70.708 55.0726 70.232 55.2084 69.8151 55.4594L70.3278 56.3108C70.5938 56.1506 70.8976 56.0639 71.2082 56.0597C71.5187 56.0554 71.8248 56.1336 72.0952 56.2864C72.3656 56.4393 72.5905 56.6611 72.747 56.9294C72.9035 57.1976 72.986 57.5026 72.986 57.8131H73.9798Z" stroke="#515576" stroke-width="2.83333" mask="url(#path-15-inside-6_0_168)"/>
<circle cx="68.399" cy="73.8687" r="6.16035" stroke="#515576" stroke-width="1.41667"/>
<mask id="path-17-inside-7_0_168" fill="white">
<path d="M71.1465 73.8687C71.1465 73.3821 71.0173 72.9043 70.7721 72.484C70.5269 72.0638 70.1744 71.7162 69.7509 71.4768C69.3273 71.2374 68.8477 71.1148 68.3612 71.1215C67.8747 71.1282 67.3986 71.264 66.9818 71.5149L67.4944 72.3663C67.7605 72.2061 68.0643 72.1195 68.3749 72.1152C68.6854 72.1109 68.9915 72.1892 69.2619 72.342C69.5322 72.4948 69.7572 72.7167 69.9137 72.9849C70.0702 73.2531 70.1527 73.5581 70.1527 73.8687H71.1465Z"/>
</mask>
<path d="M71.1465 73.8687C71.1465 73.3821 71.0173 72.9043 70.7721 72.484C70.5269 72.0638 70.1744 71.7162 69.7509 71.4768C69.3273 71.2374 68.8477 71.1148 68.3612 71.1215C67.8747 71.1282 67.3986 71.264 66.9818 71.5149L67.4944 72.3663C67.7605 72.2061 68.0643 72.1195 68.3749 72.1152C68.6854 72.1109 68.9915 72.1892 69.2619 72.342C69.5322 72.4948 69.7572 72.7167 69.9137 72.9849C70.0702 73.2531 70.1527 73.5581 70.1527 73.8687H71.1465Z" stroke="#515576" stroke-width="2.83333" mask="url(#path-17-inside-7_0_168)"/>
</svg>
